<svg id="Layer_4" data-name="Layer 4" xmlns="http://www.w3.org/2000/svg" viewBox="0 0 75.01 268.5"><defs><style>.cls-1,.cls-4{fill:#45403f;}.cls-1,.cls-3,.cls-5,.cls-6,.cls-7{stroke:#000;}.cls-2,.cls-5{fill:#c4c4c4;}.cls-3{fill:none;}.cls-6{fill:#807778;}.cls-7,.cls-9{fill:#ef9037;}.cls-8{fill:#fee2cd;}</style></defs><title>character</title><path class="cls-1" d="M295.14,470.94h-39.5c6-6.5,12-16.67,27-18C299.64,451.44,297.14,466.44,295.14,470.94Z" transform="translate(-226.09 -202.94)"/><path class="cls-2" d="M258.64,404.94c-3-32-18-35.5-5-66.5,11,4.5,26.16.84,38.5,0,7.5,16,.5,44-2.5,57-12.4,11.6-25.84,11.17-31,9.5,4.5,7.5,12.66,7.67,25.5,7.5,2.5,14-4.5,24.5-4.5,41-15.5,2-24,19.5-24,17C251.64,442.94,251.64,439.94,258.64,404.94Z" transform="translate(-226.09 -202.94)"/><path class="cls-3" d="M258.64,404.94c-3-32-18-35.5-5-66.5,11,4.5,26.16.84,38.5,0,7.5,16,.5,44-2.5,57C277.24,407,263.8,406.61,258.64,404.94Zm0,0c-7,35-7,38-3,65.5,0,2.5,8.5-15,24-17,0-16.5,7-27,4.5-41C271.3,412.61,263.14,412.44,258.64,404.94Z" transform="translate(-226.09 -202.94)"/><path class="cls-4" d="M284.14,412.44c-19.2.8-23.84-4.33-25-7a33.33,33.33,0,0,0,30.5-10C291.64,405.94,286.14,410.94,284.14,412.44Z" transform="translate(-226.09 -202.94)"/><path class="cls-4" d="M291.64,337.94c-19,4-37,2.84-38,0a5.54,5.54,0,0,0,.94-1.5,12.16,12.16,0,0,0,.87-3.73,27.66,27.66,0,0,0,0-4.27,51,51,0,0,0-1.81-10c21,3,29.5-4.5,35-3-1,1.25-1.29,3.22-1.21,5.5a37.47,37.47,0,0,0,1.21,7.54c.54,2.16,1.18,4.23,1.76,6C290.89,335.91,291.33,337.13,291.64,337.94Z" transform="translate(-226.09 -202.94)"/><path class="cls-3" d="M287.43,320.94c-.08-2.28.24-4.25,1.21-5.5-5.5-1.5-14,6-35,3a51,51,0,0,1,1.81,10m32-7.5c-7.72,4.34-24.93,11.9-32,7.5m32-7.5a37.47,37.47,0,0,0,1.21,7.54m-33.19,0a27.66,27.66,0,0,1,0,4.27m0,0c8.73-.07,27.59-1,33.19-4.23m-33.19,4.23a12.16,12.16,0,0,1-.87,3.73m34.06-8c.54,2.16,1.18,4.23,1.76,6m-35.82,2a5.54,5.54,0,0,1-.94,1.5c1,2.84,19,4,38,0-.31-.81-.75-2-1.24-3.5m-35.82,2c9.19.84,29.22,1.6,35.82-2m-31.26,71c1.16,2.67,5.8,7.8,25,7,2-1.5,7.5-6.5,5.5-17A33.33,33.33,0,0,1,259.14,405.44Z" transform="translate(-226.09 -202.94)"/><path class="cls-5" d="M252.64,276.94c-7.2,8.4-2.17,24.67,1,41.5,7,7,13.5,7.5,21.5,4.5,2.39-.89,14-6.5,19-11.5,3.4-3.39,3.68-4.5,5.5-12.5,2.5-11-2.5-16.5-3.5-18C294.47,278.45,261.64,266.44,252.64,276.94Z" transform="translate(-226.09 -202.94)"/><path class="cls-2" d="M253.14,320.44s-9.5-14-3.5-30c9.5,20.5,20.66,13.17,28.5,7,4,5,2,26-1,28C267.94,321.44,258.64,317.94,253.14,320.44Z" transform="translate(-226.09 -202.94)"/><path class="cls-3" d="M253.14,320.44s-9.5-14-3.5-30c9.5,20.5,20.66,13.17,28.5,7,4,5,2,26-1,28C267.94,321.44,258.64,317.94,253.14,320.44Z" transform="translate(-226.09 -202.94)"/><path class="cls-2" d="M266.64,272.08c-19.2-1.6-23.66,11.66-23.5,18.5,9.6,26.8,30.67,15.5,40,6.5C285.64,289.41,285.84,273.68,266.64,272.08Z" transform="translate(-226.09 -202.94)"/><path class="cls-3" d="M266.64,272.08c-19.2-1.6-23.66,11.66-23.5,18.5,9.6,26.8,30.67,15.5,40,6.5C285.64,289.41,285.84,273.68,266.64,272.08Z" transform="translate(-226.09 -202.94)"/><path class="cls-4" d="M253.14,320.44c4.8-2.8,18,2.17,24,5,.5.24,0,1,0,1-6-.8-17.84,1.67-23,3C252.64,328.94,250.64,324.94,253.14,320.44Z" transform="translate(-226.09 -202.94)"/><path class="cls-3" d="M253.14,320.44c4.8-2.8,18,2.17,24,5,.5.24,0,1,0,1-6-.8-17.84,1.67-23,3C252.64,328.94,250.64,324.94,253.14,320.44Z" transform="translate(-226.09 -202.94)"/><path class="cls-2" d="M264.64,360.94c-6.8-6.4-10.67-24.16-10.5-31.5,8.5-2.5,18.5-3.5,23-3,4,6.5,2,22,1.5,28C269.64,352.44,267.14,356.44,264.64,360.94Z" transform="translate(-226.09 -202.94)"/><path class="cls-3" d="M264.64,360.94c-6.8-6.4-10.67-24.16-10.5-31.5,8.5-2.5,18.5-3.5,23-3,4,6.5,2,22,1.5,28C269.64,352.44,267.14,356.44,264.64,360.94Z" transform="translate(-226.09 -202.94)"/><path class="cls-6" d="M239.14,218.44c23.5,17.5,59,38,61,55.5C286.14,276.44,224.33,244,239.14,218.44Z" transform="translate(-226.09 -202.94)"/><path class="cls-7" d="M236.64,224.94c23,4,61,40,61,50.5C277.64,279.44,241.64,252.94,236.64,224.94Z" transform="translate(-226.09 -202.94)"/><path class="cls-4" d="M271.14,391.44c-6.8-1.2-7.17-20.83-6.5-30.5,3.2-7.6,10.66-7.5,14-6.5,2.33,1,3.55,2.61,5,6s3.83,12.17,3.5,16c-.5,2-2,1-3,0a21.1,21.1,0,0,1-3.84-5.55c1.08,3.2,2.47,10.4,1.84,14.05A9.52,9.52,0,0,1,271.14,391.44Z" transform="translate(-226.09 -202.94)"/><path class="cls-3" d="M264.64,360.94c-.67,9.67-.3,29.3,6.5,30.5a9.52,9.52,0,0,0,11-6.5c.66-3.83-.91-11.57-2-14.5-1.5-4,.05,2.05,4,6,1,1,2.5,2,3,0,.33-3.83-2-12.5-3.5-16s-2.67-5-5-6C275.3,353.44,267.84,353.34,264.64,360.94Z" transform="translate(-226.09 -202.94)"/><ellipse class="cls-8" cx="47.05" cy="27.5" rx="24" ry="27.5"/><path class="cls-8" d="M277.14,257.94c3.29,12.46,5.45,16.08,6.3,16.47l.2,0a.25.25,0,0,1-.2,0l-6.3-1h-15.5l1-17Z" transform="translate(-226.09 -202.94)"/><path class="cls-5" d="M300.14,273.94c-4.5,2.5-4.5,5.5-4.5,5.5-16.34-1.33-47.38-3.59-45-5.5s4-3.5,3.5-5c-3-4-4-4-7.5-6.5-21.3-15.21-13-47.82-7.5-44,5,3.5,3.39,7,6,10a131.84,131.84,0,0,1,12,16C271.63,268,288.64,266.44,300.14,273.94Z" transform="translate(-226.09 -202.94)"/><path class="cls-3" d="M298.14,275.44c-27.6-1.2-58-22.5-65-40.5a41,41,0,0,0,3,14.5c9,20.5,42,26.67,59.5,29.5A11.54,11.54,0,0,1,298.14,275.44Z" transform="translate(-226.09 -202.94)"/><path class="cls-7" d="M269.44,266.19c-2.17-1.35-2.85,0-2.92.85-1.25,2.16,4.89,2.94,6.49,3.76,1.29.65,1-1.13.76-2.1C273.16,267.76,271.62,267.54,269.44,266.19Z" transform="translate(-226.09 -202.94)"/><path class="cls-9" d="M231.62,222c1.33-1.49,3.49.29,4.41,1.37-2.41,4.82-2.07,6.85-1.82,9.89q-4.68,1.86-4.24-3.36a2.41,2.41,0,0,1-3,.25c-.65-.77-.36-4.6.62-7.48.66-1.95,2.08-.66,3.52.29A3.42,3.42,0,0,1,231.62,222Z" transform="translate(-226.09 -202.94)"/><path class="cls-3" d="M230,229.89q-.43,5.22,4.24,3.36c-.25-3-.59-5.07,1.82-9.89-.92-1.08-3.08-2.86-4.41-1.37a3.42,3.42,0,0,0-.54,1M230,229.89a19.15,19.15,0,0,1,1.11-6.94M230,229.89a2.41,2.41,0,0,1-3,.25c-.65-.77-.36-4.6.62-7.48.66-1.95,2.08-.66,3.52.29" transform="translate(-226.09 -202.94)"/><path class="cls-9" d="M262.3,283.94a2.87,2.87,0,0,1-.14.84c0,2.14,3.2,2.71,5,2.71-.75,0-2.31.63-2.61,3.18-.37,3.19,3.35-.7,1.86,1.77-3.14,5.23-6.94.95-7.44-1.06.62,1.06,2.16,2.41,3.35-.71,1.49-3.89-6.7-2.48-3.35-3.18a4,4,0,0,0,3.21-2.71A2.68,2.68,0,0,1,262.3,283.94Z" transform="translate(-226.09 -202.94)"/><path class="cls-3" d="M262.3,283.94a3.85,3.85,0,0,1-3.35,3.55c-3.35.7,4.84-.71,3.35,3.18-1.19,3.12-2.73,1.77-3.35.71.5,2,4.3,6.29,7.44,1.06,1.49-2.47-2.23,1.42-1.86-1.77.3-2.55,1.86-3.18,2.61-3.18C265.15,287.49,261.41,286.78,262.3,283.94Z" transform="translate(-226.09 -202.94)"/></svg>