<svg id="Layer_1" data-name="Layer 1" xmlns="http://www.w3.org/2000/svg" viewBox="0 0 129.07 83.16"><defs><style>.cls-1{fill:#4ca4c1;}.cls-2,.cls-8{fill:none;}.cls-2,.cls-3,.cls-4,.cls-6,.cls-8,.cls-9{stroke:#000;}.cls-3{fill:#010101;}.cls-4,.cls-5{fill:#353535;}.cls-6{fill:#545760;stroke-width:0.5px;}.cls-7{fill:#4da8c4;}.cls-8{stroke-width:0.7px;}.cls-9{fill:#1a1a1a;}</style></defs><title>gun</title><path class="cls-1" d="M14.14,382.44a2.28,2.28,0,0,1,2.5-2.5v5.5C15.14,385.44,14.14,384.66,14.14,382.44Z" transform="translate(-13.64 -374.39)"/><path class="cls-2" d="M14.14,382.44a2.28,2.28,0,0,1,2.5-2.5v5.5C15.14,385.44,14.14,384.66,14.14,382.44Z" transform="translate(-13.64 -374.39)"/><path class="cls-3" d="M83.64,408.44h-2.5c1,3,0,4-.5,4.5s1,3,2.5,2.5C84.34,415,84,410.61,83.64,408.44Z" transform="translate(-13.64 -374.39)"/><path class="cls-1" d="M14.14,391.44a2.28,2.28,0,0,1,2.5-2.5v5.5C15.14,394.44,14.14,393.66,14.14,391.44Z" transform="translate(-13.64 -374.39)"/><path class="cls-2" d="M14.14,391.44a2.28,2.28,0,0,1,2.5-2.5v5.5C15.14,394.44,14.14,393.66,14.14,391.44Z" transform="translate(-13.64 -374.39)"/><path class="cls-4" d="M16.64,377.94l6,.5-.5,18-6-.5Z" transform="translate(-13.64 -374.39)"/><path class="cls-2" d="M81.11,407.07,66.19,405c.47,2.77,1,8.32-.62,8.4-2,.09-.45,1.41.06,1.39s21.65,3.85,23.14,3.08c-.57-1.37-1.2-7.38-3-10.31L83.15,407m-2,.1c.42,1.76,1,5,.26,5.56-1,.75,0,2.79,1.15,2.74s1.5-.77,1.43-2.16a39.18,39.18,0,0,0-.8-6.24m-2,.1,2-.1" transform="translate(-13.64 -374.39)"/><path class="cls-5" d="M115.62,411.2c-.75,1.18-1.79,3.93.07,5.5l2.42,2c7,5.75,25.8,21.9,24,32.16-2.13,12-6.87,2.6-17.22,4.25-5.14,2.57-10.35,1.14-11.57-3.84-1-4.18-6.72-.38-5.58-5.86.6-2.88,1.27-6.19-.85-8.22a14.16,14.16,0,0,1-2.44-2.8c-2.36-3.46,1.1-3.51-.08-5.5s-4.62-.43-5.24-3.92,1.12-2-.06-4.5c-2.36-3.47-8.06.11-10.42-3.36s-1.84-8-4.15-8.94C90.25,409.06,104.08,409.7,115.62,411.2Z" transform="translate(-13.64 -374.39)"/><path class="cls-2" d="M142.09,450.83c-2.13,12-6.87,2.6-17.22,4.25-5.14,2.57-10.35,1.14-11.57-3.84-1-4.18-6.72-.38-5.58-5.86.6-2.88,1.27-6.19-.85-8.22a14.16,14.16,0,0,1-2.44-2.8c-2.36-3.46,1.1-3.51-.08-5.5s-4.62-.43-5.24-3.92,1.12-2-.06-4.5c-2.36-3.47-8.06.11-10.42-3.36s-1.84-8-4.15-8.94c5.77.92,19.6,1.56,31.14,3.06-.75,1.18-1.79,3.93.07,5.5l2.42,2m24,32.16c1.82-10.26-17-26.41-24-32.16m24,32.16-19,.27c-.46,0-1.36-1-1.75-1.47-5.69-8.76-17.42-26.76-18.83-28.74s.54-2.18,1.7-2l13.9-.19" transform="translate(-13.64 -374.39)"/><path class="cls-5" d="M37.64,402.44c-4-.5-15.89-1.5-15.89-2.5l.64-11.5.75-13.5,33.5,3.5v-1l45.5,6.5,3.5,5.5c.83-.16,4.8-.1,14,1.5s14.16,7.34,15.5,10c1.33,3.84-.2,11.4-17,11C97.14,411.44,42.21,403,37.64,402.44Z" transform="translate(-13.64 -374.39)"/><path class="cls-2" d="M21.75,399.94c0,1,11.89,2,15.89,2.5,4.57.58,59.5,9,80.5,9.5,16.8.4,18.33-7.16,17-11-1.34-2.66-6.3-8.4-15.5-10s-13.17-1.66-14-1.5l-3.5-5.5-45.5-6.5v1m-34.89,21.5,1.39-25,33.5,3.5m-34.89,21.5c.11-2,.75-13.5.64-11.5m-.64,11.5c.19-3.5.5-9,.64-11.5m34.25-10v13.5c-8-1-26.5-2.5-34.25-3.5" transform="translate(-13.64 -374.39)"/><path class="cls-6" d="M71.66,387.59c2.15.92,2.9-1.21,2.59-2.4l.42-1a.43.43,0,0,0-.56-.59,8,8,0,0,0-.89.53h0A1.89,1.89,0,1,0,71.66,387.59Z" transform="translate(-13.64 -374.39)"/><path class="cls-6" d="M66.08,384.9c.46-2.29-1.79-2.59-2.88-2l-1.06-.21a.43.43,0,0,0-.46.67,6.67,6.67,0,0,0,.69.77h0A1.9,1.9,0,1,0,66.08,384.9Z" transform="translate(-13.64 -374.39)"/><path class="cls-6" d="M80.22,384.87c-1.37,1.89.54,3.1,1.76,3.07l.87.63a.43.43,0,0,0,.7-.41,6.07,6.07,0,0,0-.31-1h0A1.9,1.9,0,1,0,80.22,384.87Z" transform="translate(-13.64 -374.39)"/><path class="cls-6" d="M88.14,387.72c1.06,2.08,3,.93,3.53-.18l1-.49a.44.44,0,0,0,0-.82,8.67,8.67,0,0,0-1-.17h0A1.9,1.9,0,1,0,88.14,387.72Z" transform="translate(-13.64 -374.39)"/><path class="cls-2" d="M22.14,396.94c28.33,5,100.4,15.6,110,12" transform="translate(-13.64 -374.39)"/><path class="cls-7" d="M33,392.94a2.47,2.47,0,0,1,1.69-2.5c21.06-2,47.46.39,67.5,3.28,4.34.62,8.37,1.27,12,1.9,4.33.75,8.06,1.49,11,2.13a56,56,0,0,1,6.5,1.69,4.08,4.08,0,0,1,1.71,3.5,5,5,0,0,1-4.21,5,30.14,30.14,0,0,1-5,.26c-3,0-7-.25-11.5-.62-3.6-.29-7.57-.68-11.75-1.14-25.58-2.79-59.32-8.22-66.25-11A2.61,2.61,0,0,1,33,392.94Z" transform="translate(-13.64 -374.39)"/><path class="cls-2" d="M33,392.94a2.47,2.47,0,0,1,1.69-2.5c21.06-2,47.46.39,67.5,3.28M33,392.94a2.61,2.61,0,0,0,1.69,2.5c6.93,2.78,40.67,8.21,66.25,11M33,392.94c21,5.17,70.57,14.4,100.4,10m0,0a5,5,0,0,1-4.21,5,30.14,30.14,0,0,1-5,.26m9.21-5.26a4.08,4.08,0,0,0-1.71-3.5,56,56,0,0,0-6.5-1.69m-23-4c1.5,2.57,3.35,8.72-1.25,12.72m1.25-12.72c4.34.62,8.37,1.27,12,1.9m-13.25,10.82c4.18.46,8.15.85,11.75,1.14m1.5-12c1.66,2.2,3.7,7.67-1.5,12m1.5-12c4.33.75,8.06,1.49,11,2.13m-12.5,9.83c4.52.37,8.46.59,11.5.62m1-10.45c1.16,2.23,2.6,7.45-1,10.45" transform="translate(-13.64 -374.39)"/><path class="cls-5" d="M51.15,380.69,27.7,378.22a.81.81,0,0,0-.57.13c-.7.51-.35,1,0,1.36a.85.85,0,0,0,.41.15c6.67.56,20.71,2.18,23.44,2.34a.74.74,0,0,0,.48-.13c.76-.5.44-.95,0-1.24A.84.84,0,0,0,51.15,380.69Z" transform="translate(-13.64 -374.39)"/><path class="cls-8" d="M51.15,380.69,27.7,378.22a.81.81,0,0,0-.57.13c-.7.51-.35,1,0,1.36a.85.85,0,0,0,.41.15c6.67.56,20.71,2.18,23.44,2.34a.74.74,0,0,0,.48-.13c.76-.5.44-.95,0-1.24A.84.84,0,0,0,51.15,380.69Z" transform="translate(-13.64 -374.39)"/><path class="cls-5" d="M50.7,383.67,27.25,381.2a.81.81,0,0,0-.57.13c-.7.51-.36,1.05,0,1.36a.89.89,0,0,0,.42.15c6.67.56,20.71,2.18,23.44,2.34a.74.74,0,0,0,.48-.13c.76-.5.44-.95.05-1.24A.74.74,0,0,0,50.7,383.67Z" transform="translate(-13.64 -374.39)"/><path class="cls-8" d="M50.7,383.67,27.25,381.2a.81.81,0,0,0-.57.13c-.7.51-.36,1.05,0,1.36a.89.89,0,0,0,.42.15c6.67.56,20.71,2.18,23.44,2.34a.74.74,0,0,0,.48-.13c.76-.5.44-.95.05-1.24A.74.74,0,0,0,50.7,383.67Z" transform="translate(-13.64 -374.39)"/><path class="cls-5" d="M50.52,386.66l-23.46-2.47a.84.84,0,0,0-.56.13c-.7.51-.36,1.05,0,1.36a.76.76,0,0,0,.42.15c6.66.56,20.7,2.19,23.43,2.34a.82.82,0,0,0,.49-.12c.75-.5.44-1,.05-1.25A1,1,0,0,0,50.52,386.66Z" transform="translate(-13.64 -374.39)"/><path class="cls-8" d="M50.52,386.66l-23.46-2.47a.84.84,0,0,0-.56.13c-.7.51-.36,1.05,0,1.36a.76.76,0,0,0,.42.15c6.66.56,20.7,2.19,23.43,2.34a.82.82,0,0,0,.49-.12c.75-.5.44-1,.05-1.25A1,1,0,0,0,50.52,386.66Z" transform="translate(-13.64 -374.39)"/><path class="cls-9" d="M103.64,418.44h14c23.2,18.4,25.67,29.67,24,33h-19c-6.67-10-20.1-30.3-20.5-31.5S103,418.44,103.64,418.44Z" transform="translate(-13.64 -374.39)"/></svg>